<svg width="20" height="20" viewBox="0 0 20 20" fill="none" xmlns="http://www.w3.org/2000/svg">
<path fill-rule="evenodd" clip-rule="evenodd" d="M18.861 4.35504C19.2172 4.6465 19.2697 5.17152 18.9782 5.52771L11.9999 14.056C11.7221 14.3955 11.3217 14.6118 10.8855 14.6579C10.4493 14.7041 10.0125 14.5765 9.66985 14.3028L6.14607 11.4841C5.78667 11.1966 5.72837 10.6722 6.01586 10.3128C6.30335 9.95337 6.82776 9.89508 7.18716 10.1826L10.71 13.0005L17.6883 4.47226C17.9798 4.11607 18.5048 4.06359 18.861 4.35504Z" fill="#28A80B"/>
<path fill-rule="evenodd" clip-rule="evenodd" d="M9.32492 10.1975L13.1449 5.52746C13.2808 5.35599 13.3438 5.13794 13.3204 4.9204C13.2969 4.70286 13.1888 4.50329 13.0194 4.36477C12.85 4.22626 12.633 4.15991 12.4151 4.18006C12.1972 4.2002 11.996 4.30523 11.8549 4.47246L8.04409 9.13079L9.32492 10.1975ZM6.68576 13.4225L5.40492 12.3558L4.86076 13.0208L2.16659 11C1.98978 10.8674 1.76753 10.8104 1.54874 10.8417C1.32995 10.8729 1.13253 10.9898 0.999922 11.1666C0.867314 11.3434 0.810375 11.5657 0.841631 11.7845C0.872887 12.0033 0.989778 12.2007 1.16659 12.3333L3.86076 14.3541C4.20469 14.612 4.63496 14.727 5.06169 14.6752C5.48842 14.6233 5.87862 14.4086 6.15076 14.0758L6.68576 13.4225Z" fill="#28A80B"/>
</svg>
