<svg width="112" height="64" viewBox="0 0 112 64" fill="none" xmlns="http://www.w3.org/2000/svg">
<path d="M24.7038 40.4545H28.17L26.8473 35.2981C27.5702 35.265 28.2945 35.2744 29.0161 35.327L29.4933 32.4254C25.5538 32.0839 21.5941 32.8636 18.0322 34.7173L21.8542 28.068L22.7292 31.958C23.7494 31.7051 24.797 31.5278 25.866 31.4317L24.1082 24.5454H20.4929L11.2 40.4545H14.8873C17.3575 38.1222 20.3892 36.4537 23.7383 35.7107C24.0223 37.2763 24.3461 38.9269 24.7038 40.4545Z" fill="#000A7A"/>
<path d="M94.8267 26.3768C94.2018 25.5567 93.5096 24.9833 92.7499 24.6566C91.9905 24.33 91.0426 24.1666 89.9066 24.1666C88.2594 24.1666 86.7967 24.5768 85.5188 25.3973C84.2412 26.2175 83.474 27.3798 83.2187 28.8834C83.0906 29.7648 83.1335 30.5281 83.3463 31.1735C83.5591 31.8192 83.9284 32.3282 84.454 32.7005C84.9789 33.0725 85.5475 33.3535 86.1579 33.5433C86.7683 33.7333 87.4855 33.8815 88.3091 33.988C89.2465 34.1092 89.9278 34.2992 90.3538 34.5575C90.7798 34.8157 90.993 35.2107 90.993 35.7424C90.993 36.4259 90.6838 36.9654 90.066 37.3604C89.4485 37.7554 88.6499 37.953 87.6699 37.953C86.8609 37.953 86.0724 37.7741 85.306 37.4173C84.5388 37.0604 83.9429 36.5248 83.517 35.8108L81.3867 38.477C81.8982 39.3731 82.6717 40.0566 83.7085 40.5279C84.7452 40.9987 85.8809 41.2264 87.1163 41.2114C88.4513 41.1962 89.6366 41.0064 90.6734 40.6416C91.7101 40.2772 92.5763 39.6429 93.2718 38.7389C93.9677 37.835 94.3156 36.6997 94.3156 35.3323C94.3156 34.3751 94.0741 33.5664 93.5914 32.9055C93.1086 32.2447 92.5158 31.7699 91.8128 31.4814C91.1098 31.1926 90.29 31.0026 89.3525 30.9116C88.3587 30.8206 87.624 30.6648 87.1484 30.4444C86.6724 30.2242 86.4346 29.8331 86.4346 29.2709C86.4346 28.6633 86.7258 28.1733 87.3082 27.801C87.8902 27.4291 88.5932 27.2427 89.4167 27.2427C90.0413 27.2427 90.645 27.3492 91.227 27.5618C91.8094 27.7748 92.2634 28.0935 92.5905 28.519L94.8267 26.3768Z" fill="#000A7A"/>
<path d="M79.6284 37.1817H71.6734L72.1964 33.9773H79.4189L79.9214 30.8634H72.6989L73.2014 27.7953H80.8634L81.3868 24.5454H70.522L67.9468 40.4545H79.1046L79.6284 37.1817Z" fill="#000A7A"/>
<path d="M49.2504 40.4545L51.8933 24.5454H48.5631L45.9199 40.4545H49.2504Z" fill="#000A7A"/>
<path d="M42.9218 40.1818L39.7574 34.909C41.2384 34.3637 42.3245 33.621 43.0159 32.6817C43.7077 31.7424 44.0534 30.553 44.0534 29.1136C44.0534 27.8104 43.6517 26.7233 42.8486 25.8521C42.0448 24.9811 40.8961 24.5454 39.4013 24.5454H32.4443L29.8667 40.4545H33.1357L33.9948 35.2273H36.4256L39.3176 40.4545H42.88L42.9218 40.1818ZM38.9193 27.5908C39.5338 27.5908 39.9949 27.7953 40.3025 28.2043C40.6097 28.6134 40.7636 29.0984 40.7636 29.6589C40.7636 30.2954 40.5328 30.8824 40.0718 31.4202C39.6111 31.9584 38.9895 32.2271 38.207 32.2271H34.4768L35.2313 27.5908H38.9193Z" fill="#000A7A"/>
<path d="M60.9792 35.9546C63.0176 35.9546 64.6267 35.3105 65.8049 34.0225C66.9839 32.7348 67.5734 31.1665 67.5734 29.3181C67.5734 27.9241 67.1676 26.78 66.3563 25.8863C65.5451 24.9922 64.3627 24.5454 62.81 24.5454H55.9455L53.3867 40.4545H56.6317L57.3597 35.9546H60.9792ZM58.6496 27.9091H62.2691C62.9067 27.9091 63.3991 28.1021 63.7456 28.4886C64.0924 28.8749 64.266 29.3561 64.266 29.9315C64.266 30.6743 64.0163 31.3218 63.5167 31.8748C63.0176 32.4281 62.3452 32.7043 61.4993 32.7043H57.8798L58.6496 27.9091Z" fill="#000A7A"/>
<path d="M7.59252 35.9546C9.63107 35.9546 11.2398 35.3105 12.4184 34.0225C13.5973 32.7348 14.1867 31.1665 14.1867 29.3181C14.1867 27.9241 13.7808 26.78 12.9697 25.8863C12.1583 24.9922 10.9761 24.5454 9.42319 24.5454H2.55872L0 40.4545H3.24507L3.97301 35.9546H7.59252ZM5.26292 27.9091H8.88231C9.52007 27.9091 10.0123 28.1021 10.3591 28.4886C10.7059 28.8749 10.8793 29.3561 10.8793 29.9315C10.8793 30.6743 10.6297 31.3218 10.1303 31.8748C9.63107 32.4281 8.95858 32.7043 8.11265 32.7043H4.49318L5.26292 27.9091Z" fill="#000A7A"/>
<path d="M107.21 40.4545H110.676L109.354 35.2981C110.077 35.265 110.801 35.2744 111.523 35.327L112 32.4254C108.06 32.0839 104.101 32.8636 100.539 34.7173L104.361 28.068L105.236 31.958C106.256 31.7051 107.304 31.5278 108.373 31.4317L106.615 24.5454H103L93.7065 40.4545H97.394C99.8643 38.1222 102.896 36.4537 106.245 35.7107C106.529 37.2763 106.853 38.9269 107.21 40.4545Z" fill="#000A7A"/>
</svg>
