<svg width="112" height="64" viewBox="0 0 112 64" fill="none" xmlns="http://www.w3.org/2000/svg">
<g clip-path="url(#clip0_4872_1113)">
<path opacity="0.25" fill-rule="evenodd" clip-rule="evenodd" d="M111.128 48.0518V45.3564C111.147 45.0888 111.08 44.8222 110.937 44.5993C110.862 44.5112 110.768 44.4428 110.663 44.3995C110.558 44.3562 110.444 44.3392 110.332 44.3498C110.181 44.3363 110.029 44.3609 109.889 44.4216C109.749 44.4823 109.625 44.5772 109.527 44.6985C109.327 45.0507 109.238 45.4596 109.272 45.8678V48.0518H108.404V43.6679H109.084L109.205 44.2425H109.25C109.376 44.031 109.558 43.8629 109.774 43.759C110.01 43.6432 110.268 43.5849 110.528 43.5885C111.508 43.5885 111.998 44.1235 111.998 45.1937V48.0525H111.126L111.128 48.0518ZM106.945 43.0178C106.879 43.0249 106.813 43.0166 106.75 42.9934C106.688 42.9703 106.631 42.9329 106.584 42.884C106.537 42.8351 106.501 42.7758 106.479 42.7105C106.456 42.6452 106.448 42.5755 106.454 42.5064C106.45 42.4366 106.459 42.3666 106.481 42.3006C106.503 42.2346 106.537 42.1739 106.582 42.122C106.63 42.0749 106.688 42.0386 106.75 42.0155C106.813 41.9923 106.879 41.9827 106.945 41.9872C107.01 41.9831 107.075 41.9929 107.137 42.0161C107.198 42.0393 107.254 42.0753 107.302 42.122C107.346 42.1739 107.381 42.2346 107.403 42.3006C107.424 42.3666 107.433 42.4366 107.429 42.5064C107.433 42.5745 107.423 42.6428 107.401 42.7071C107.38 42.7714 107.346 42.8305 107.302 42.8808C107.254 42.9281 107.198 42.9647 107.137 42.9883C107.076 43.0118 107.01 43.0219 106.945 43.0178ZM103.614 48.0518L103.086 46.0047C103.022 45.788 102.906 45.2846 102.739 44.4945H102.705C102.562 45.2079 102.449 45.7138 102.365 46.0121L101.822 48.0518H100.862L99.7186 43.6679H100.605L101.126 45.8282C101.244 46.3621 101.327 46.8193 101.377 47.1998H101.399C101.424 47.0068 101.461 46.7855 101.512 46.5359C101.562 46.2862 101.605 46.0998 101.641 45.9765L102.261 43.6697H103.214L103.816 45.9765C103.853 46.1059 103.899 46.3041 103.955 46.5712C104.001 46.776 104.033 46.9839 104.053 47.1934H104.082C104.144 46.7342 104.23 46.279 104.341 45.83L104.869 43.6697H105.741L104.589 48.0518H103.613H103.614ZM95.1346 50C94.3662 50.018 93.6101 49.7953 92.9628 49.3603C92.3155 48.9254 91.8064 48.298 91.5004 47.5581C91.1944 46.8182 91.1054 45.9994 91.2448 45.2062C91.3842 44.413 91.7456 43.6814 92.2829 43.1047C92.8203 42.5279 93.5092 42.1323 94.2617 41.9682C95.0143 41.8042 95.7963 41.8791 96.5081 42.1835C97.2199 42.4878 97.8292 43.0078 98.2581 43.6771C98.687 44.3464 98.9162 45.1346 98.9164 45.9412C98.9277 47.0056 98.5357 48.0312 97.8265 48.7924C97.1173 49.5535 96.149 49.9879 95.1346 50ZM95.1346 42.5318C94.489 42.5165 93.8536 42.7034 93.3096 43.0688C92.7656 43.4341 92.3377 43.9612 92.0805 44.5829C91.8233 45.2045 91.7484 45.8925 91.8655 46.559C91.9825 47.2255 92.2861 47.8403 92.7376 48.3249C93.1891 48.8095 93.768 49.142 94.4003 49.2798C95.0326 49.4177 95.6898 49.3547 96.2879 49.0989C96.8859 48.8431 97.3978 48.4061 97.7582 47.8437C98.1185 47.2813 98.311 46.6189 98.311 45.9412C98.3204 45.0471 97.9911 44.1857 97.3955 43.5464C96.7998 42.9071 95.9866 42.5421 95.1346 42.5318ZM93.6403 47.5294L94.6695 46.4191C94.8827 46.1932 95.0848 45.9561 95.2749 45.7086C95.3637 45.588 95.4367 45.4554 95.4918 45.3144C95.5375 45.188 95.5603 45.0538 95.5591 44.9187C95.5634 44.8349 95.5512 44.7511 95.5233 44.6724C95.4953 44.5938 95.4522 44.522 95.3967 44.4617C95.3362 44.4039 95.2653 44.3593 95.1882 44.3306C95.1111 44.302 95.0293 44.2898 94.9476 44.2947C94.7956 44.2945 94.6449 44.3253 94.504 44.3854C94.3248 44.4696 94.158 44.5801 94.0086 44.7137L93.6618 44.2594C93.8524 44.0787 94.0713 43.934 94.3089 43.8317C94.5225 43.7469 94.7492 43.7042 94.9776 43.7057C95.3019 43.6887 95.6204 43.8 95.8702 44.0177C95.9819 44.1227 96.0701 44.2525 96.1282 44.3977C96.1864 44.5428 96.2131 44.6997 96.2066 44.857C96.2075 45.0453 96.1746 45.2322 96.1097 45.4079C96.0346 45.6006 95.9344 45.7815 95.812 45.9454C95.6067 46.2112 95.3836 46.4614 95.1444 46.694L94.4512 47.4147V47.444H96.3458V48.0518H93.6403V47.5294ZM89.4102 48.1294C88.5877 48.1294 88.1765 47.6644 88.1765 46.7342V44.3734H87.6189V43.9612L88.2172 43.6202L88.5125 42.6927H89.0483V43.6679H90.2117V44.3738H89.0483V46.7201C89.0411 46.8098 89.0513 46.9001 89.0782 46.9856C89.1052 47.071 89.1483 47.1499 89.205 47.2174C89.26 47.2717 89.3248 47.3138 89.3956 47.3414C89.4663 47.369 89.5416 47.3814 89.617 47.378C89.8328 47.3777 90.0472 47.3419 90.2524 47.2721V47.9738C90.1335 48.0258 90.0094 48.0637 89.8824 48.0867C89.7267 48.1166 89.5685 48.1309 89.4102 48.1294ZM84.8148 47.0494C84.9255 47.1671 85.0589 47.2585 85.206 47.3176C85.3531 47.3767 85.5106 47.4021 85.6678 47.3921C85.8939 47.3937 86.1195 47.3691 86.3405 47.3187C86.5714 47.2616 86.7961 47.1799 87.0111 47.0748V47.8319C86.8072 47.9373 86.5912 48.0146 86.3684 48.0617C86.1235 48.1092 85.8748 48.1318 85.6257 48.1291C85.3513 48.1453 85.0767 48.1006 84.8199 47.9978C84.5631 47.895 84.3299 47.7365 84.1354 47.5326C83.7578 47.0802 83.5645 46.4902 83.5973 45.8897C83.5639 45.2822 83.741 44.6825 84.0958 44.2012C84.2649 43.9966 84.4761 43.8349 84.7135 43.7285C84.9508 43.622 85.2082 43.5736 85.466 43.5867C85.7025 43.5741 85.9389 43.6146 86.1593 43.7055C86.3797 43.7965 86.5791 43.9357 86.7441 44.114C87.0739 44.5153 87.2422 45.0355 87.2132 45.5646V46.0679H84.4909C84.4802 46.4262 84.5955 46.7761 84.8148 47.0508V47.0494ZM86.362 45.3945C86.3775 45.0985 86.291 44.8066 86.1181 44.5721C86.0361 44.4782 85.9352 44.4044 85.8228 44.3561C85.7105 44.3078 85.5893 44.2861 85.468 44.2926C85.3447 44.2871 85.2217 44.3095 85.1073 44.3582C84.9929 44.4069 84.8899 44.4808 84.8051 44.575C84.6221 44.8064 84.5176 45.095 84.5078 45.3955H86.362V45.3945ZM81.3149 48.1294C81.0827 48.1406 80.8515 48.0917 80.6415 47.9871C80.4316 47.8825 80.2493 47.7253 80.1108 47.5294H80.0516L79.8929 48.0486H79.2428V41.8841H80.1108V43.3506C80.1108 43.4591 80.1059 43.6202 80.096 43.8341C80.0862 44.048 80.0788 44.1841 80.0738 44.2425H80.1108C80.2414 44.0308 80.4228 43.859 80.6368 43.7442C80.8508 43.6294 81.0897 43.5757 81.3297 43.5885C81.5595 43.5778 81.7882 43.6265 81.9958 43.7301C82.2034 43.8338 82.3837 43.9894 82.5207 44.1832C82.8316 44.6761 82.9813 45.2618 82.9472 45.8519C82.9808 46.4455 82.8292 47.0344 82.5153 47.5294C82.3771 47.7246 82.1954 47.8814 81.9862 47.986C81.7769 48.0905 81.5465 48.1398 81.3149 48.1294ZM81.1044 44.348C80.9623 44.3343 80.8191 44.3573 80.6875 44.4151C80.5558 44.4728 80.4396 44.5634 80.349 44.6791C80.167 45.0155 80.0841 45.4011 80.1108 45.787V45.8505C80.0808 46.2527 80.1626 46.6554 80.3463 47.0099C80.4356 47.1337 80.5534 47.2316 80.6888 47.2944C80.8241 47.3571 80.9725 47.3826 81.1198 47.3685C81.2593 47.375 81.3979 47.3419 81.5211 47.2729C81.6442 47.2038 81.7474 47.1013 81.8198 46.976C81.9981 46.6287 82.0806 46.2361 82.0579 45.8424C82.0574 44.8473 81.7396 44.3498 81.1044 44.3498V44.348ZM71.4495 50C71.2605 50.0005 71.0721 49.9779 70.8882 49.9326V49.1974C71.0349 49.231 71.1847 49.2469 71.3348 49.2451C71.7537 49.2451 72.048 48.9848 72.2177 48.4644L72.369 48.0521L70.7291 43.6682H71.6748L72.5056 46.1533C72.6235 46.4757 72.7077 46.8106 72.7568 47.1521H72.7864C72.8163 46.9731 72.857 46.7963 72.9082 46.6227C72.9674 46.4152 73.2802 45.4302 73.8466 43.6679H74.7846L73.0377 48.6345C72.7197 49.5462 72.1903 50.002 71.4495 50.0018V50ZM69.5714 47.4394H69.5418C69.3883 47.6686 69.1851 47.8561 68.9488 47.9865C68.7056 48.0917 68.4436 48.141 68.1807 48.1312C68.0098 48.1419 67.8386 48.1165 67.6772 48.0566C67.5158 47.9967 67.3674 47.9035 67.2409 47.7825C67.1235 47.6506 67.0331 47.4949 66.9753 47.3249C66.9175 47.1549 66.8934 46.9743 66.9046 46.7942C66.8933 46.5959 66.9304 46.3978 67.0125 46.2187C67.0945 46.0395 67.2188 45.8854 67.3734 45.7707C67.8066 45.5064 68.3021 45.3758 68.8029 45.3941L69.5092 45.3705V45.1386C69.5258 44.9125 69.4604 44.6881 69.3262 44.5104C69.251 44.4357 69.1616 44.3786 69.0639 44.3427C68.9661 44.3068 68.8623 44.293 68.7592 44.3021C68.5547 44.3014 68.3515 44.3349 68.1571 44.4013C67.9677 44.4663 67.7827 44.5445 67.6032 44.6353L67.3227 43.9693C67.5524 43.8424 67.797 43.7474 68.0502 43.687C68.2944 43.6247 68.5448 43.5921 68.7961 43.5899C69.2177 43.5574 69.6362 43.687 69.9733 43.9545C70.1149 44.1036 70.2238 44.2834 70.2923 44.4813C70.3609 44.6792 70.3875 44.8904 70.3702 45.1001V48.0518H69.7497L69.5714 47.4394ZM69.4977 45.9571L68.9731 45.9807C68.6625 45.9702 68.3548 46.0461 68.0811 46.2006C67.9889 46.2665 67.9147 46.3565 67.8658 46.4617C67.8169 46.567 67.795 46.6838 67.8023 46.8006C67.7974 46.884 67.8093 46.9675 67.8373 47.0457C67.8653 47.124 67.9087 47.1951 67.9647 47.2545C68.1016 47.3717 68.2762 47.4292 68.4524 47.4151C68.731 47.4293 69.0037 47.3278 69.2115 47.1327C69.3099 47.0288 69.3862 46.9043 69.4355 46.7674C69.4848 46.6304 69.506 46.4841 69.4977 46.3379V45.9588V45.9571ZM65.2878 41.8841H66.1573V48.0518H65.2892V41.8841H65.2878ZM62.7858 48.1312C62.5536 48.1423 62.3224 48.0934 62.1124 47.9888C61.9025 47.8842 61.7202 47.727 61.5817 47.5312H61.5299C61.5645 47.9011 61.5817 48.1257 61.5817 48.205V50.0004H60.7136V43.6679H61.4149C61.4344 43.7498 61.475 43.9453 61.5367 44.2545H61.5831C61.7109 44.0392 61.8914 43.8639 62.1058 43.7467C62.3202 43.6296 62.5606 43.5749 62.802 43.5885C63.0317 43.5778 63.2604 43.6265 63.468 43.7301C63.6757 43.8338 63.8559 43.9894 63.9929 44.1832C64.304 44.6761 64.4538 45.2618 64.4197 45.8519C64.453 46.446 64.3001 47.0352 63.9842 47.5294C63.8462 47.7244 63.6649 47.881 63.456 47.9856C63.2471 48.0902 63.017 48.1396 62.7858 48.1294V48.1312ZM63.2863 44.7285C63.2096 44.6057 63.1036 44.5062 62.9788 44.4398C62.8541 44.3733 62.715 44.3423 62.5753 44.3498C62.4338 44.337 62.2915 44.3599 62.1601 44.4164C62.0287 44.4729 61.9121 44.5615 61.8199 44.6748C61.6371 44.9855 61.5537 45.3493 61.5817 45.7132V45.8519C61.5517 46.2541 61.6335 46.6569 61.8172 47.0113C61.9063 47.1349 62.0239 47.2326 62.1589 47.2953C62.294 47.358 62.442 47.3837 62.5891 47.3699C62.7279 47.3748 62.8655 47.3407 62.9876 47.271C63.1097 47.2013 63.2118 47.0986 63.2833 46.9735C63.4647 46.6288 63.5492 46.2372 63.5271 45.8441C63.5515 45.4555 63.4678 45.0682 63.2863 44.7285ZM55.6689 50C54.9005 50.0179 54.1445 49.7951 53.4972 49.3602C52.85 48.9252 52.3409 48.2977 52.0349 47.5578C51.729 46.8179 51.6401 45.9991 51.7795 45.206C51.9189 44.4128 52.2803 43.6812 52.8177 43.1045C53.355 42.5278 54.0439 42.1322 54.7965 41.9682C55.549 41.8042 56.3311 41.8791 57.0428 42.1835C57.7546 42.4879 58.3638 43.0079 58.7928 43.6772C59.2217 44.3464 59.4509 45.1346 59.451 45.9412C59.4623 47.0057 59.0701 48.0312 58.3609 48.7924C57.6516 49.5535 56.6833 49.9879 55.6689 50ZM55.6689 42.5318C55.0233 42.5166 54.388 42.7037 53.8441 43.0691C53.3002 43.4345 52.8724 43.9617 52.6153 44.5834C52.3581 45.205 52.2834 45.893 52.4005 46.5595C52.5176 47.2259 52.8213 47.8407 53.2728 48.3252C53.7243 48.8097 54.3032 49.1421 54.9355 49.2799C55.5678 49.4177 56.225 49.3547 56.823 49.0989C57.421 48.843 57.9329 48.406 58.2932 47.8436C58.6535 47.2812 58.8459 46.6189 58.846 45.9412C58.8554 45.047 58.526 44.1855 57.9302 43.5462C57.3344 42.9068 56.521 42.5419 55.6689 42.5318ZM54.4191 47.5294L55.4483 46.4191C55.6615 46.1932 55.8636 45.9561 56.0537 45.7086C56.1425 45.588 56.2155 45.4554 56.2706 45.3144C56.3163 45.188 56.3392 45.0538 56.3379 44.9187C56.3422 44.8349 56.33 44.7511 56.3021 44.6724C56.2741 44.5938 56.231 44.522 56.1755 44.4617C56.115 44.4039 56.0441 44.3593 55.967 44.3306C55.8899 44.302 55.8081 44.2898 55.7265 44.2947C55.5744 44.2945 55.4237 44.3253 55.2828 44.3854C55.1037 44.4696 54.9368 44.5801 54.7874 44.7137L54.4406 44.2594C54.6312 44.0787 54.8501 43.934 55.0877 43.8317C55.3013 43.7469 55.528 43.7042 55.7564 43.7057C56.0807 43.6887 56.3992 43.8 56.649 44.0177C56.7607 44.1227 56.8489 44.2525 56.907 44.3977C56.9652 44.5428 56.9919 44.6997 56.9854 44.857C56.9863 45.0453 56.9534 45.2322 56.8885 45.4079C56.8134 45.6006 56.7132 45.7815 56.5908 45.9454C56.3855 46.2112 56.1624 46.4614 55.9232 46.694L55.23 47.4147V47.444H57.1246V48.0518H54.4191V47.5294ZM49.8601 48.1294C49.0378 48.1294 48.6266 47.6644 48.6264 46.7342V44.3734H48.0687V43.9612L48.6671 43.6202L48.9627 42.6927H49.4982V43.6679H50.6616V44.3738H49.4982V46.7201C49.491 46.8099 49.5012 46.9002 49.5282 46.9857C49.5552 47.0711 49.5984 47.15 49.6552 47.2174C49.7102 47.2717 49.7749 47.3139 49.8456 47.3414C49.9163 47.369 49.9916 47.3815 50.0669 47.378C50.2827 47.3777 50.497 47.342 50.7023 47.2721V47.9738C50.5833 48.0258 50.4592 48.0637 50.3323 48.0867C50.1765 48.1166 50.0184 48.1309 49.8601 48.1294ZM45.2647 47.0494C45.3754 47.167 45.5088 47.2585 45.6559 47.3176C45.803 47.3767 45.9604 47.4021 46.1177 47.3921C46.3438 47.3936 46.5694 47.369 46.7903 47.3187C47.0211 47.2616 47.2457 47.1799 47.4606 47.0748V47.8319C47.2568 47.9373 47.0407 48.0146 46.8179 48.0617C46.5739 48.1092 46.3261 48.1319 46.078 48.1294C45.8035 48.1458 45.5289 48.1011 45.2721 47.9983C45.0152 47.8955 44.782 47.7369 44.5877 47.533C44.21 47.0805 44.0167 46.4905 44.0495 45.89C44.0162 45.2825 44.1932 44.6829 44.548 44.2015C44.7171 43.997 44.9284 43.8353 45.1657 43.7289C45.4031 43.6225 45.6604 43.574 45.9182 43.5871C46.1547 43.5744 46.3911 43.615 46.6115 43.7059C46.8319 43.7968 47.0313 43.9361 47.1963 44.1144C47.5268 44.5154 47.6956 45.0356 47.6672 45.565V46.0682H44.9449C44.933 46.4259 45.0469 46.7755 45.2647 47.0508V47.0494ZM46.8119 45.3945C46.8276 45.0985 46.741 44.8065 46.568 44.5721C46.486 44.4782 46.3851 44.4044 46.2727 44.356C46.1604 44.3077 46.0392 44.2861 45.9179 44.2926C45.7946 44.2871 45.6716 44.3095 45.5572 44.3582C45.4428 44.4069 45.3397 44.4808 45.255 44.575C45.072 44.8064 44.9674 45.095 44.9576 45.3955H46.8119V45.3945ZM41.7648 48.1294C41.5326 48.1406 41.3014 48.0917 41.0914 47.9871C40.8814 47.8825 40.6992 47.7253 40.5607 47.5294H40.5015L40.3428 48.0486H39.6926V41.8841H40.5621V43.3506C40.5621 43.4591 40.5571 43.6202 40.5473 43.8341C40.5374 44.048 40.53 44.1841 40.5251 44.2425H40.5621C40.6927 44.0308 40.8741 43.859 41.088 43.7442C41.302 43.6294 41.5409 43.5757 41.7809 43.5885C42.0107 43.5778 42.2394 43.6265 42.447 43.7301C42.6547 43.8338 42.8349 43.9894 42.9719 44.1832C43.2829 44.6761 43.4327 45.2618 43.3987 45.8519C43.4319 46.4457 43.2797 47.0346 42.9652 47.5294C42.827 47.7247 42.6453 47.8814 42.4361 47.986C42.2268 48.0906 41.9964 48.1398 41.7648 48.1294ZM41.5542 44.3498C41.4122 44.3361 41.269 44.3591 41.1373 44.4168C41.0057 44.4745 40.8895 44.5652 40.7988 44.6808C40.6172 45.0174 40.5343 45.4029 40.5607 45.7887V45.8522C40.5307 46.2545 40.6125 46.6572 40.7961 47.0117C40.8853 47.1352 41.0029 47.2329 41.1379 47.2957C41.2729 47.3584 41.421 47.3841 41.568 47.3702C41.7075 47.3768 41.8461 47.3438 41.9693 47.2747C42.0924 47.2057 42.1956 47.1031 42.268 46.9778C42.4463 46.6305 42.5288 46.2379 42.5061 45.8441C42.5068 44.8479 42.1895 44.3498 41.5542 44.3498ZM107.375 48.0518H106.508V43.6679H107.375V48.0518Z" fill="#0B848F"/>
<path fill-rule="evenodd" clip-rule="evenodd" d="M89.2677 19.8825H87.8729C87.7795 19.876 87.6858 19.8907 87.5982 19.9254C87.5106 19.9601 87.431 20.0141 87.365 20.0837C87.2989 20.1534 87.2478 20.237 87.2151 20.3291C87.1824 20.4212 87.1688 20.5196 87.1754 20.6176V26.5001C87.1754 32 84.9922 33.8529 82.991 33.8529C82.4549 33.8529 82.2935 32.4606 82.2935 33.1178V20.6176C82.3095 20.5176 82.3025 20.4151 82.2732 20.3184C82.2439 20.2218 82.1931 20.1339 82.1249 20.062C82.0567 19.9901 81.9732 19.9364 81.8813 19.9051C81.7893 19.8739 81.6916 19.8661 81.5962 19.8825H75.3195C75.226 19.8892 75.1322 19.8748 75.0445 19.8402C74.9568 19.8055 74.8771 19.7516 74.811 19.6818C74.7449 19.6121 74.6938 19.5283 74.6613 19.4361C74.6287 19.3439 74.6154 19.2454 74.6223 19.1473C74.6223 17.5061 76.7257 14.7355 80.2014 14.7355H94.1493C94.8284 14.7355 94.8469 14.9628 94.8469 15.4707C94.8469 18.1555 92.3284 19.8825 89.2677 19.8825ZM69.0428 19.1473H64.1612C63.2117 19.1473 62.7664 19.5828 62.7664 20.618C62.7664 21.6532 63.2222 22.0887 64.1612 22.0887H69.7404C70.2156 22.0887 70.4376 22.2849 70.4376 22.8239C70.4376 25.0142 68.7532 26.5005 66.2532 26.5005H64.1612C63.3466 26.5005 62.7664 26.8358 62.7664 27.9712C62.7664 29.1066 63.2373 29.4419 64.1612 29.4419H73.2275C73.7717 29.4419 73.9247 29.5947 73.9247 30.177C73.9247 31.4123 72.8606 33.8536 68.3456 33.8536H58.5817C57.8754 33.8536 57.8845 32.5269 57.8845 33.1185V19.1469C57.8845 16.262 60.3936 14.7352 62.7664 14.7352H73.2265C74.0926 14.7352 73.9237 15.2025 73.9237 15.4703C73.9247 17.3032 72.8528 19.1473 69.0428 19.1473ZM52.3054 33.8529H39.752V14.7352H51.6078C54.1354 14.7352 55.7922 16.7307 55.7922 18.4118V22.8235C55.7922 23.6095 55.0949 24.2942 55.0949 24.2942C55.3118 24.4659 55.4878 24.6881 55.6088 24.9433C55.7298 25.1986 55.7925 25.4799 55.7922 25.7649V30.9119C55.7922 32.505 54.507 33.8529 52.3054 33.8529ZM51.1231 20C51.1231 19.7192 51.0168 19.4499 50.8276 19.2513C50.6384 19.0527 50.3817 18.9412 50.1141 18.9412H45.7418C45.4742 18.9412 45.2175 19.0527 45.0283 19.2513C44.8391 19.4499 44.7328 19.7192 44.7328 20V21.0588C44.7328 21.3396 44.8391 21.6089 45.0283 21.8075C45.2175 22.0061 45.4742 22.1176 45.7418 22.1176H50.1141C50.3817 22.1176 50.6384 22.0061 50.8276 21.8075C51.0168 21.6089 51.1231 21.3396 51.1231 21.0588V20ZM51.1231 27.4118C51.1231 27.1309 51.0168 26.8616 50.8276 26.6631C50.6384 26.4645 50.3817 26.3529 50.1141 26.3529H45.7418C45.4742 26.3529 45.2175 26.4645 45.0283 26.6631C44.8391 26.8616 44.7328 27.1309 44.7328 27.4118V28.4706C44.7328 28.7514 44.8391 29.0207 45.0283 29.2193C45.2175 29.4178 45.4742 29.5294 45.7418 29.5294H50.1141C50.3817 29.5294 50.6384 29.4178 50.8276 29.2193C51.0168 29.0207 51.1231 28.7514 51.1231 28.4706V27.4118Z" fill="#0B848F"/>
<path fill-rule="evenodd" clip-rule="evenodd" d="M24.409 38.2647L11.1574 34.5881C11.1574 34.5881 18.8712 31.7618 20.9222 27.2353C23.55 21.4354 22.1805 14 14.6455 14C-1.81614 14 6.27679 22.8235 6.27679 22.8235L10.4601 22.0884C10.5639 21.744 10.7448 21.4308 10.9877 21.175C11.2305 20.9191 11.5283 20.728 11.8559 20.6176C13.0331 20.1616 15.3431 23.5587 15.3431 23.5587L6.27679 35.3236L17.4351 40.4706L24.409 38.2647Z" fill="#BE2424"/>
<path fill-rule="evenodd" clip-rule="evenodd" d="M13.9482 44.1472L0 38.9999V34.5881C0 34.5881 4.8641 31.8292 7.67149 29.4412C10.4789 27.0532 12.4044 25.8447 12.5531 22.8235C12.6631 20.5922 10.2596 19.1829 8.36872 19.8825C7.03616 20.3755 6.27671 22.8235 6.27671 22.8235L1.39479 19.8825C1.39479 19.8825 3.472 14.1129 10.4601 14.7352C17.4481 15.3574 20.8572 19.634 18.1326 27.2353C16.1145 32.8661 6.97393 35.3236 6.97393 35.3236L16.7378 39.0002L13.9482 44.1472Z" fill="#FF4949"/>
<path fill-rule="evenodd" clip-rule="evenodd" d="M29.9885 16.2059C29.9885 16.2059 28.8648 14.1634 21.6195 14.7351C14.3741 15.3069 12.5532 24.2942 12.5532 24.2942L16.7375 25.7649H22.317C22.317 25.7649 21.0393 28.7176 17.4351 33.8529C13.8309 38.9882 11.856 41.2057 11.856 41.2057V46.353L16.0403 49.2941L33.4753 34.5881L27.1989 33.1177L29.9885 16.2059Z" fill="#01444A"/>
<path fill-rule="evenodd" clip-rule="evenodd" d="M23.0142 25.7646H16.7378C16.7378 25.7646 18.0119 18.5935 25.1066 16.2059C31.2851 14.1264 35.31 19.3164 32.7781 25.0294C31.0607 28.904 29.5462 31.6471 27.8961 33.853C26.2461 36.0588 23.0142 39.7354 23.0142 39.7354L33.4743 34.5885V39.7354L16.0403 49.2941V43.4117C16.0403 43.4117 21.5041 36.5628 25.1066 30.9119C28.7091 25.261 28.8836 19.31 25.8038 21.3532C23.5413 22.8539 23.0142 25.7646 23.0142 25.7646Z" fill="#0B848F"/>
</g>
<defs>
<clipPath id="clip0_4872_1113">
<rect width="112" height="36" fill="white" transform="translate(0 14)"/>
</clipPath>
</defs>
</svg>
