<svg width="112" height="64" viewBox="0 0 112 64" fill="none" xmlns="http://www.w3.org/2000/svg">
<g clip-path="url(#clip0_4872_1238)">
<path fill-rule="evenodd" clip-rule="evenodd" d="M102.446 29.4293H98.5882L97.0452 40.9304H92.4158L93.9588 29.4293H90.101L90.8732 25.4634H103.218L102.446 29.4293ZM83.9283 29.4293L83.5426 31.0159H88.1719L87.3997 34.9818H82.7712L82.3853 36.9647H88.1721L87.3999 40.9306H77.3702L79.6848 25.4636H89.7145L88.9423 29.4295H83.9285L83.9283 29.4293ZM74.2838 32.9988C74.2838 32.9988 76.5984 33.6764 76.5984 36.172C76.5984 38.6676 74.0951 40.9318 71.5832 40.9318H62.7104L65.0251 25.4648H71.9691C73.2015 25.4648 77.3702 25.1358 77.3702 28.638C77.3702 32.1402 74.284 32.9978 74.284 32.9978L74.2838 32.9988ZM68.1111 36.9645H70.4259C71.7987 36.9645 72.4889 34.9816 70.4259 34.9816H68.497L68.1111 36.9645ZM70.8118 29.4293H69.2688L68.8829 31.4124H70.8118C72.4554 31.4113 72.9203 29.4293 70.8118 29.4293Z" fill="black"/>
<path fill-rule="evenodd" clip-rule="evenodd" d="M103.218 28.2386H99.3597L97.8165 39.7397H93.1873L94.7303 28.2386H90.8725L91.6447 24.2726H103.99L103.218 28.2386ZM84.7004 28.2386L84.3145 29.8252H88.9439L88.1717 33.7911H83.5427L83.1568 35.774H88.9435L88.1713 39.7399H78.1417L80.4563 24.2728H90.4866L89.7144 28.2388H84.7L84.7004 28.2386ZM75.0558 31.8078C75.0558 31.8078 77.3704 32.4857 77.3704 34.9811C77.3704 37.4764 74.8671 39.7409 72.3553 39.7409H63.4819L65.796 24.2726H72.74C73.9722 24.2726 78.1411 23.9437 78.1411 27.4459C78.1411 30.948 75.0554 31.8078 75.0554 31.8078H75.0558ZM68.8828 35.7738H71.1974C72.5703 35.7738 73.2606 33.7909 71.1974 33.7909H69.2687L68.8828 35.7738ZM71.5833 28.2386H70.0401L69.6544 30.2216H71.5833C73.2269 30.2216 73.6918 28.2386 71.5833 28.2386Z" fill="url(#paint0_linear_4872_1238)"/>
<path fill-rule="evenodd" clip-rule="evenodd" d="M36.6741 15.9331C47.4348 15.9331 56.1573 24.9023 56.1573 35.9666C56.1573 47.0309 47.4348 56 36.6741 56C25.9134 56 17.1909 47.0309 17.1909 35.9668C17.1909 24.9027 25.9134 15.9331 36.6741 15.9331Z" fill="#145F50"/>
<path fill-rule="evenodd" clip-rule="evenodd" d="M35.5057 15.9331C45.6211 15.9331 53.8207 24.3725 53.8207 34.7832C53.8207 45.194 45.6203 53.6332 35.5057 53.6332C25.391 53.6332 17.1907 45.1938 17.1907 34.7832C17.1907 24.3727 25.3902 15.9331 35.5057 15.9331Z" fill="#196946"/>
<path fill-rule="evenodd" clip-rule="evenodd" d="M34.5517 17.1333C44.14 17.1333 51.9129 25.125 51.9129 34.9835C51.9129 44.842 44.14 52.8335 34.5517 52.8335C24.9633 52.8335 17.1904 44.8418 17.1904 34.9835C17.1904 25.1252 24.9631 17.1333 34.5517 17.1333Z" fill="#237841"/>
<path opacity="0.55" fill-rule="evenodd" clip-rule="evenodd" d="M44.0937 15.0331C44.7362 15.7418 45.3328 16.4918 45.8799 17.2786L43.2512 17.6257C42.9853 17.2933 42.7119 16.9649 42.4218 16.6464C40.7047 14.7475 38.6313 13.2153 36.323 12.1396C34.0147 11.0638 31.518 10.4662 28.9791 10.3817C26.4402 10.2971 23.9101 10.7274 21.5373 11.6472C19.1644 12.5671 16.9963 13.9581 15.1602 15.7386C7.38868 23.2361 6.99386 35.7982 14.2785 43.7969C15.9956 45.6959 18.0691 47.2283 20.3775 48.3041C22.6859 49.3799 25.1827 49.9776 27.7218 50.0621C30.2608 50.1466 32.7909 49.7163 35.1639 48.7963C37.5368 47.8763 39.7049 46.4852 41.5411 44.7045C42.8778 43.414 44.0273 41.9378 44.9552 40.3198L47.2825 40.88C46.1887 42.9404 44.7798 44.812 43.1083 46.4251C41.054 48.4174 38.6283 49.9738 35.9734 51.0031C33.3185 52.0324 30.4878 52.5139 27.6471 52.4193C24.8064 52.3248 22.0129 51.6561 19.4302 50.4525C16.8476 49.2489 14.5277 47.5345 12.6066 45.4098C4.4557 36.4608 4.89803 22.4062 13.593 14.0178C15.6473 12.0257 18.0729 10.4694 20.7277 9.44019C23.3825 8.41099 26.2131 7.92956 29.0537 8.02411C31.8943 8.11866 34.6877 8.78729 37.2702 9.99082C39.8528 11.1944 42.1726 12.9086 44.0937 15.0331Z" fill="#2DA041"/>
<path opacity="0.65" fill-rule="evenodd" clip-rule="evenodd" d="M27.7968 53.2239C26.8465 53.2219 25.8972 53.1565 24.9553 53.028L26.5227 50.797C26.9442 50.8251 27.3684 50.8443 27.7968 50.8443C38.5565 50.8443 47.2788 41.8776 47.2788 30.8165C47.2788 19.7554 38.5565 10.7887 27.7968 10.7887C17.0371 10.7887 8.31462 19.7554 8.31462 30.8165C8.31459 32.715 8.57746 34.6041 9.09553 36.4285L7.08702 37.8042C6.36611 35.5471 5.9993 33.1891 6 30.8165C6 18.4411 15.7588 8.40894 27.7968 8.40894C39.8348 8.40894 49.5937 18.4411 49.5937 30.8165C49.5937 43.1919 39.8348 53.2239 27.7968 53.2239Z" fill="#2DA041"/>
<path opacity="0.65" fill-rule="evenodd" clip-rule="evenodd" d="M56.3937 37.6458C54.8565 46.4722 49.2261 49.258 45.1172 49.258C37.4216 49.258 34.2563 41.9439 36.669 32.2545C38.8359 23.5525 42.9852 21.4718 47.9726 21.4718C53.4077 21.4718 58.4422 25.884 56.3937 37.6458ZM46.7218 29.7661C45.3952 29.7661 44.2759 30.5683 43.757 33.9506C43.2358 37.3467 43.2075 40.5489 45.9617 40.5489C47.4554 40.5489 48.6527 39.4678 49.0267 36.0427C49.5251 31.4779 48.8038 29.7661 46.7218 29.7661ZM27.2188 38.9466L33.3915 41.7228L32.6193 47.6716L15.6445 44.8954L16.0302 42.9125L26.0607 32.2045C26.0607 32.2045 28.6589 27.2804 27.218 26.6522C25.7772 26.024 24.9034 29.4293 24.9034 29.4293L17.9592 28.6352C17.9592 28.6352 20.702 25.6703 26.4464 22.2888C32.1908 18.9073 35.3196 27.0486 35.3196 27.0486C35.3196 27.0486 34.9165 32.0896 32.2334 34.9805C29.5503 37.8713 27.218 38.9466 27.218 38.9466H27.2188Z" fill="#005556"/>
<path fill-rule="evenodd" clip-rule="evenodd" d="M58.0809 34.1875C56.2086 42.628 50.3391 45.2919 46.1217 45.2919C38.2247 45.2919 35.2208 38.2976 38.0204 29.0318C40.535 20.7101 44.8622 18.7202 49.9796 18.7202C55.5568 18.7202 60.5757 22.9396 58.0809 34.1875ZM48.4185 26.6521C47.0569 26.6521 45.8819 27.4193 45.2365 30.6535C44.5882 33.9015 44.4522 36.9634 47.2784 36.9634C48.8114 36.9634 50.076 35.9297 50.5741 32.6543C51.2384 28.2895 50.5555 26.6521 48.4189 26.6521H48.4185ZM27.2181 38.1534H34.9337L33.7764 44.8953H16.0303L16.8025 38.1534C16.8025 38.1534 19.3074 36.2836 22.2035 34.1875C25.0997 32.0913 26.8484 29.8596 27.6046 28.6351C28.3607 27.4106 28.4546 25.859 27.2187 25.859C25.5252 25.859 25.2897 28.6351 25.2897 28.6351H17.9592C17.9592 28.6351 18.6878 24.2476 21.0456 21.4962C23.4034 18.7447 29.2834 17.8173 33.3907 19.5133C35.9778 20.5816 37.8334 25.3643 34.548 31.0144C32.0976 35.2288 27.2181 38.1534 27.2181 38.1534Z" fill="url(#paint1_linear_4872_1238)"/>
</g>
<defs>
<linearGradient id="paint0_linear_4872_1238" x1="83.7367" y1="39.7385" x2="83.7367" y2="24.2678" gradientUnits="userSpaceOnUse">
<stop stop-color="#DCDCDC"/>
<stop offset="1" stop-color="white"/>
</linearGradient>
<linearGradient id="paint1_linear_4872_1238" x1="37.383" y1="45.2929" x2="37.383" y2="18.657" gradientUnits="userSpaceOnUse">
<stop stop-color="#DEDEDE"/>
<stop offset="1" stop-color="#FCFCFC"/>
</linearGradient>
<clipPath id="clip0_4872_1238">
<rect width="100" height="48" fill="white" transform="translate(6 8)"/>
</clipPath>
</defs>
</svg>
