<svg width="20" height="20" viewBox="0 0 20 20" fill="none" xmlns="http://www.w3.org/2000/svg">
<path d="M8.45429 5.52393C9.10929 3.88977 9.43762 3.07227 10.001 3.07227C10.5643 3.07227 10.8926 3.88893 11.5476 5.52393L11.5785 5.59893C11.9485 6.5231 12.1335 6.98477 12.5118 7.2656C12.8885 7.5456 13.3843 7.5906 14.3751 7.67893L14.5535 7.69477C16.1751 7.83977 16.9868 7.91227 17.1593 8.4281C17.3335 8.94477 16.731 9.49227 15.526 10.5873L15.1251 10.9539C14.5151 11.5081 14.2101 11.7856 14.0685 12.1489C14.0417 12.2168 14.0194 12.2864 14.0018 12.3573C13.9093 12.7356 13.9985 13.1381 14.1768 13.9423L14.2326 14.1923C14.5601 15.6714 14.7243 16.4106 14.4385 16.7298C14.3313 16.8488 14.1922 16.9344 14.0376 16.9764C13.6243 17.0898 13.0376 16.6114 11.8626 15.6548C11.0918 15.0264 10.706 14.7123 10.2635 14.6414C10.0896 14.6137 9.91236 14.6137 9.73846 14.6414C9.29513 14.7123 8.91012 15.0264 8.13846 15.6548C6.96512 16.6114 6.37762 17.0898 5.96429 16.9764C5.81006 16.9343 5.6712 16.8487 5.56429 16.7298C5.27762 16.4106 5.44179 15.6714 5.76929 14.1931L5.82512 13.9423C6.00346 13.1373 6.09262 12.7356 6.00012 12.3564C5.98249 12.2856 5.96022 12.216 5.93346 12.1481C5.79179 11.7856 5.48679 11.5081 4.87679 10.9531L4.47512 10.5873C3.27096 9.49227 2.66846 8.94393 2.84179 8.42893C3.01596 7.91227 3.82679 7.83977 5.44846 7.69477L5.62679 7.6781C6.61846 7.58977 7.11346 7.5456 7.49096 7.26477C7.86846 6.98393 8.05346 6.5231 8.42429 5.59977L8.45429 5.52393Z" stroke="#FFC207" stroke-width="2"/>
</svg>
