<svg width="32" height="32" viewBox="0 0 32 32" fill="none" xmlns="http://www.w3.org/2000/svg">
<path d="M19.3 15.9999L9.49998 6.19992C9.16665 5.86659 9.00554 5.47214 9.01665 5.01659C9.02776 4.56103 9.19998 4.16659 9.53332 3.83325C9.86665 3.49992 10.2611 3.33325 10.7167 3.33325C11.1722 3.33325 11.5667 3.49992 11.9 3.83325L22.1333 14.0999C22.4 14.3666 22.6 14.6666 22.7333 14.9999C22.8667 15.3333 22.9333 15.6666 22.9333 15.9999C22.9333 16.3333 22.8667 16.6666 22.7333 16.9999C22.6 17.3333 22.4 17.6333 22.1333 17.8999L11.8667 28.1666C11.5333 28.4999 11.1444 28.661 10.7 28.6499C10.2555 28.6388 9.86665 28.4666 9.53332 28.1333C9.19998 27.7999 9.03332 27.4055 9.03332 26.9499C9.03332 26.4944 9.19998 26.0999 9.53332 25.7666L19.3 15.9999Z" fill="#FF0036"/>
</svg>
