<svg width="48" height="40" viewBox="0 0 48 40" fill="none" xmlns="http://www.w3.org/2000/svg">
<path d="M10.2593 30.1655C10.2593 29.9995 10.2349 29.8506 10.186 29.7188C10.1372 29.582 10.0469 29.4551 9.91504 29.3379C9.7832 29.2207 9.59277 29.1035 9.34375 28.9863C9.09961 28.8643 8.77734 28.7373 8.37695 28.6055C7.9082 28.4492 7.45654 28.2734 7.02197 28.0781C6.5874 27.8779 6.19921 27.646 5.85742 27.3823C5.51562 27.1138 5.24463 26.8013 5.04443 26.4448C4.84423 26.0835 4.74415 25.6636 4.74415 25.1851C4.74415 24.7261 4.84668 24.3135 5.05175 23.9473C5.25683 23.5762 5.54248 23.2612 5.90869 23.0024C6.27978 22.7388 6.71435 22.5386 7.2124 22.4019C7.71045 22.2603 8.25488 22.1895 8.84571 22.1895C9.62696 22.1895 10.3154 22.3262 10.9111 22.5996C11.5117 22.8682 11.9805 23.2515 12.3174 23.7495C12.6592 24.2427 12.8301 24.8262 12.8301 25.5H10.2739C10.2739 25.2314 10.2178 24.9946 10.1055 24.7896C9.99804 24.5845 9.83448 24.4233 9.61475 24.3062C9.39503 24.189 9.11914 24.1304 8.78712 24.1304C8.46485 24.1304 8.19385 24.1792 7.97413 24.2769C7.7544 24.3745 7.58838 24.5063 7.47607 24.6724C7.36378 24.8335 7.30762 25.0117 7.30762 25.207C7.30762 25.3682 7.35156 25.5146 7.43945 25.6465C7.53222 25.7734 7.66163 25.8931 7.82764 26.0054C7.99854 26.1177 8.20361 26.2251 8.44287 26.3276C8.68702 26.4302 8.96045 26.5303 9.26318 26.6279C9.82959 26.8086 10.3325 27.0112 10.772 27.2358C11.2163 27.4556 11.5899 27.707 11.8926 27.9902C12.2002 28.2686 12.4321 28.5859 12.5884 28.9424C12.7495 29.2988 12.8301 29.7017 12.8301 30.1509C12.8301 30.6294 12.7373 31.0542 12.5518 31.4253C12.3662 31.7964 12.1001 32.1113 11.7534 32.3701C11.4067 32.624 10.9917 32.8169 10.5083 32.9487C10.0249 33.0806 9.48535 33.1465 8.88964 33.1465C8.34277 33.1465 7.80323 33.0781 7.27099 32.9414C6.74365 32.7998 6.26514 32.585 5.83546 32.2969C5.40577 32.0039 5.06153 31.6304 4.80274 31.1763C4.54883 30.7173 4.42188 30.1729 4.42188 29.543H7.00001C7.00001 29.8555 7.0415 30.1191 7.12451 30.334C7.20752 30.5488 7.32959 30.7222 7.49072 30.854C7.65185 30.981 7.84962 31.0737 8.08399 31.1323C8.31837 31.186 8.58691 31.2129 8.88964 31.2129C9.21679 31.2129 9.48047 31.1665 9.68067 31.0737C9.88087 30.9761 10.0273 30.8491 10.1201 30.6929C10.2129 30.5317 10.2593 30.356 10.2593 30.1655ZM19.3193 22.3359V33H16.7485V22.3359H19.3193ZM22.5273 22.3359V24.3208H13.6138V22.3359H22.5273ZM32.437 27.4556V27.8877C32.437 28.7031 32.3223 29.4355 32.0928 30.085C31.8682 30.7295 31.5483 31.2812 31.1333 31.7402C30.7183 32.1943 30.2275 32.5435 29.6611 32.7876C29.0947 33.0269 28.4697 33.1465 27.7861 33.1465C27.0977 33.1465 26.4678 33.0269 25.8965 32.7876C25.3301 32.5435 24.8369 32.1943 24.417 31.7402C24.002 31.2812 23.6797 30.7295 23.4502 30.085C23.2256 29.4355 23.1133 28.7031 23.1133 27.8877V27.4556C23.1133 26.6401 23.2256 25.9077 23.4502 25.2583C23.6797 24.6089 23.9995 24.0571 24.4097 23.603C24.8247 23.144 25.3154 22.7949 25.8818 22.5557C26.4531 22.3115 27.083 22.1895 27.7715 22.1895C28.4551 22.1895 29.0801 22.3115 29.6465 22.5557C30.2178 22.7949 30.7109 23.144 31.126 23.603C31.541 24.0571 31.8633 24.6089 32.0928 25.2583C32.3223 25.9077 32.437 26.6401 32.437 27.4556ZM29.8296 27.8877V27.4409C29.8296 26.9136 29.7832 26.4497 29.6904 26.0493C29.6025 25.644 29.4707 25.3047 29.2949 25.0312C29.1191 24.7578 28.9019 24.5527 28.6431 24.416C28.3892 24.2744 28.0986 24.2036 27.7715 24.2036C27.4297 24.2036 27.1318 24.2744 26.8779 24.416C26.624 24.5527 26.4116 24.7578 26.2407 25.0312C26.0698 25.3047 25.9404 25.644 25.8525 26.0493C25.7695 26.4497 25.728 26.9136 25.728 27.4409V27.8877C25.728 28.4102 25.7695 28.874 25.8525 29.2793C25.9404 29.6797 26.0698 30.019 26.2407 30.2974C26.4165 30.5757 26.6314 30.7856 26.8853 30.9272C27.144 31.0688 27.4443 31.1396 27.7861 31.1396C28.1133 31.1396 28.4038 31.0688 28.6577 30.9272C28.9116 30.7856 29.124 30.5757 29.2949 30.2974C29.4707 30.019 29.6025 29.6797 29.6904 29.2793C29.7832 28.874 29.8296 28.4102 29.8296 27.8877ZM38.0254 29.3818H35.374V27.397H38.0254C38.3867 27.397 38.6797 27.3359 38.9043 27.2139C39.1289 27.0918 39.2925 26.9233 39.395 26.7085C39.5024 26.4888 39.5562 26.2422 39.5562 25.9688C39.5562 25.6758 39.5024 25.4048 39.395 25.1558C39.2925 24.9067 39.1289 24.7065 38.9043 24.5552C38.6797 24.3989 38.3867 24.3208 38.0254 24.3208H36.3408V33H33.77V22.3359H38.0254C38.8799 22.3359 39.6148 22.4922 40.23 22.8047C40.8501 23.1172 41.3262 23.5469 41.6582 24.0938C41.9902 24.6357 42.1563 25.2559 42.1563 25.9541C42.1563 26.6426 41.9902 27.2432 41.6582 27.7559C41.3262 28.2686 40.8501 28.6689 40.23 28.957C39.6148 29.2402 38.8799 29.3818 38.0254 29.3818Z" fill="white"/>
<path d="M16.4903 11.3013V15.6811C16.3096 15.8813 16.0313 16.0962 15.6553 16.3257C15.2842 16.5503 14.8155 16.7432 14.2491 16.9043C13.6826 17.0654 13.0161 17.146 12.2495 17.146C11.5415 17.146 10.8994 17.0337 10.3232 16.8091C9.74707 16.5796 9.25146 16.2451 8.83643 15.8057C8.42627 15.3613 8.10889 14.8193 7.88428 14.1797C7.66455 13.5351 7.55469 12.7978 7.55469 11.9678V11.3745C7.55469 10.5444 7.66699 9.80713 7.8916 9.1626C8.11621 8.51806 8.43115 7.97607 8.83643 7.53662C9.24658 7.09228 9.72754 6.75537 10.2793 6.52588C10.836 6.29639 11.4463 6.18164 12.1104 6.18164C13.0918 6.18164 13.8902 6.33789 14.5054 6.65039C15.1206 6.95801 15.5869 7.38525 15.9043 7.93213C16.2217 8.47412 16.4146 9.10156 16.4829 9.81445H14.0147C13.9659 9.46289 13.8731 9.16504 13.7364 8.9209C13.6045 8.67187 13.4141 8.48389 13.1651 8.35693C12.916 8.2251 12.5938 8.15918 12.1983 8.15918C11.8907 8.15918 11.6099 8.2251 11.356 8.35693C11.107 8.48877 10.8946 8.68896 10.7188 8.95752C10.543 9.22119 10.4062 9.55322 10.3086 9.95361C10.2158 10.354 10.1694 10.8227 10.1694 11.3599V11.9678C10.1694 12.5 10.2134 12.9663 10.3013 13.3667C10.394 13.7671 10.5308 14.1016 10.7115 14.3701C10.897 14.6338 11.1314 14.834 11.4146 14.9707C11.7027 15.1025 12.042 15.1684 12.4326 15.1684C12.7061 15.1684 12.9405 15.1465 13.1358 15.1025C13.3311 15.0537 13.4922 14.9951 13.6192 14.9267C13.751 14.8535 13.8511 14.7851 13.9195 14.7217V13.0664H12.1324V11.3013H16.4903ZM22.5108 8.57666L19.9107 16.9995H17.1494L21.0679 6.33545H22.8184L22.5108 8.57666ZM24.6641 16.9995L22.0567 8.57666L21.7198 6.33545H23.4922L27.4326 16.9995H24.6641ZM24.5616 13.0224V15.0073H19.0904V13.0224H24.5616ZM29.4908 6.33545H31.5855L33.9659 13.7549L36.3462 6.33545H38.4409L34.8155 16.9995H33.1162L29.4908 6.33545ZM28.2163 6.33545H30.3843L30.7871 14.5093V16.9995H28.2163V6.33545ZM37.5474 6.33545H39.7227V16.9995H37.1446V14.5093L37.5474 6.33545Z" fill="white"/>
<path d="M1.45312 12C1.45312 6.7533 5.70642 2.5 10.9531 2.5H46.4531V19.5V27C46.4531 32.2467 42.1998 36.5 36.9531 36.5H1.45312V19.5V12Z" stroke="white"/>
</svg>
