<svg width="40" height="40" viewBox="0 0 40 40" fill="none" xmlns="http://www.w3.org/2000/svg">
<path fill-rule="evenodd" clip-rule="evenodd" d="M32 3.5H30V7.5H26V9.5H30V13.5H32V9.5H36V7.5H32V3.5Z" fill="white"/>
<path fill-rule="evenodd" clip-rule="evenodd" d="M35.8071 26.3506C37.2236 22.7131 37.3834 18.7064 36.2609 14.9678L34.3492 15.5417C34.7726 16.9536 35 18.4503 35 20C35 28.5604 28.0604 35.5 19.5 35.5C10.9396 35.5 4.00003 28.5604 4.00003 20C4.00003 11.4396 10.9396 4.5 19.5 4.5C21.0965 4.5 22.6366 4.74136 24.0858 5.18959L24.6761 3.28302C20.9472 2.12842 16.9394 2.25371 13.2899 3.63895C9.64037 5.02419 6.55878 7.58985 4.53516 10.9279C2.51153 14.266 1.66206 18.1848 2.12184 22.0612C2.58161 25.9376 4.32424 29.549 7.07259 32.3211C9.82092 35.0931 13.4172 36.8667 17.2895 37.3598C21.1618 37.8529 25.0877 37.0372 28.4431 35.0423C31.7984 33.0475 34.3905 29.988 35.8071 26.3506Z" fill="white"/>
<path d="M16.1264 14.8354V25.4995H13.6582V17.6186L11.2266 18.3291V16.4541L15.8994 14.8354H16.1264ZM26.7685 22.5625C26.7685 23.2412 26.6074 23.81 26.2851 24.269C25.9678 24.728 25.5283 25.0723 24.9668 25.3017C24.4101 25.5312 23.7754 25.646 23.0625 25.646C22.3545 25.646 21.7173 25.5312 21.1509 25.3017C20.5893 25.0723 20.145 24.728 19.8179 24.269C19.4907 23.81 19.3271 23.2412 19.3271 22.5625C19.3271 22.0986 19.4199 21.6836 19.6055 21.3174C19.7959 20.9463 20.0596 20.6313 20.3965 20.3725C20.7334 20.1138 21.1264 19.916 21.5757 19.7793C22.0298 19.6426 22.5205 19.5742 23.0478 19.5742C23.7607 19.5742 24.3979 19.6963 24.9595 19.9404C25.521 20.1797 25.9629 20.5215 26.2851 20.9658C26.6074 21.4101 26.7685 21.9424 26.7685 22.5625ZM24.2856 22.3647C24.2856 22.0718 24.2344 21.8252 24.1318 21.625C24.0293 21.4199 23.8852 21.2637 23.6997 21.1562C23.5141 21.0488 23.2969 20.9951 23.0478 20.9951C22.8037 20.9951 22.5864 21.0488 22.396 21.1562C22.2104 21.2637 22.0639 21.4199 21.9565 21.625C21.854 21.8252 21.8027 22.0718 21.8027 22.3647C21.8027 22.6479 21.8564 22.8945 21.9638 23.1045C22.0713 23.3096 22.2178 23.4683 22.4033 23.5806C22.5937 23.688 22.8135 23.7417 23.0625 23.7417C23.3115 23.7417 23.5263 23.688 23.707 23.5806C23.8926 23.4683 24.0342 23.3096 24.1318 23.1045C24.2344 22.8945 24.2856 22.6479 24.2856 22.3647ZM26.5488 17.6846C26.5488 18.2412 26.3999 18.7295 26.102 19.1494C25.8091 19.5644 25.3989 19.8891 24.8716 20.1235C24.3491 20.353 23.7461 20.4678 23.0625 20.4678C22.3838 20.4678 21.7783 20.353 21.2461 20.1235C20.7187 19.8891 20.3037 19.5644 20.001 19.1494C19.7031 18.7295 19.5542 18.2412 19.5542 17.6846C19.5542 17.0303 19.7031 16.4809 20.001 16.0366C20.3037 15.5923 20.7187 15.2554 21.2461 15.0259C21.7734 14.7964 22.374 14.6816 23.0478 14.6816C23.7314 14.6816 24.3369 14.7964 24.8642 15.0259C25.3916 15.2554 25.8042 15.5923 26.102 16.0366C26.3999 16.4809 26.5488 17.0303 26.5488 17.6846ZM24.0805 17.8164C24.0805 17.5625 24.0415 17.3452 23.9634 17.1645C23.8852 16.979 23.7705 16.8374 23.6191 16.7397C23.4678 16.6372 23.2773 16.5859 23.0478 16.5859C22.8281 16.5859 22.6426 16.6348 22.4912 16.7324C22.3398 16.8301 22.2251 16.9717 22.147 17.1572C22.0688 17.3379 22.0298 17.5576 22.0298 17.8164C22.0298 18.0703 22.0688 18.2925 22.147 18.4829C22.2251 18.6733 22.3398 18.8223 22.4912 18.9297C22.6474 19.0371 22.8379 19.0908 23.0625 19.0908C23.292 19.0908 23.48 19.0371 23.6264 18.9297C23.7778 18.8223 23.8901 18.6733 23.9634 18.4829C24.0415 18.2925 24.0805 18.0703 24.0805 17.8164Z" fill="white"/>
</svg>
