<svg width="112" height="40" viewBox="0 0 112 40" fill="none" xmlns="http://www.w3.org/2000/svg">
<g clip-path="url(#clip0_4872_1098)">
<path d="M42.2687 16.1802C42.3483 16.4548 42.2489 16.6179 42.0302 16.6912L39.8863 17.3203C39.6278 17.3991 39.4887 17.3203 39.4091 17.0654C39.0778 15.9832 38.3576 15.3934 37.0466 15.3934C35.022 15.3934 34.3471 16.573 34.3471 18.1662V21.8252C34.3471 23.4183 35.022 24.5979 37.0466 24.5979C38.7144 24.5979 39.587 23.8319 39.587 22.1589V21.6873H37.3647C37.1857 21.6873 37.0664 21.5888 37.0664 21.3722V19.3468C37.0619 19.306 37.0664 19.2647 37.0795 19.2258C37.0926 19.1869 37.1141 19.1512 37.1424 19.1213C37.1707 19.0914 37.2053 19.0679 37.2436 19.0524C37.282 19.0369 37.3233 19.0298 37.3647 19.0317H42.2091C42.4079 19.0317 42.5272 19.1301 42.5272 19.3271V22.3559C42.5272 25.2467 40.3822 27.4308 37.0466 27.4308C33.0957 27.4308 31.25 25.11 31.25 21.9237V18.0677C31.25 14.8814 33.0957 12.5605 37.0466 12.5605C40.243 12.5605 41.6933 14.3704 42.2687 16.1802ZM53.1461 19.7987V26.899C53.1485 26.9383 53.1425 26.9777 53.1284 27.0146C53.1144 27.0514 53.0926 27.0849 53.0645 27.1128C53.0364 27.1407 53.0027 27.1624 52.9656 27.1765C52.9284 27.1905 52.8887 27.1967 52.849 27.1944H50.6642C50.6232 27.1987 50.5816 27.1942 50.5425 27.1811C50.5033 27.168 50.4675 27.1468 50.4374 27.1187C50.4073 27.0907 50.3836 27.0565 50.3681 27.0186C50.3525 26.9807 50.3454 26.9399 50.3472 26.899V25.7391C50.0374 26.2569 49.5951 26.6845 49.0651 26.9789C48.5351 27.2732 47.9361 27.4238 47.3286 27.4155C45.2642 27.4155 43.9344 26.0969 43.9344 24.0716C43.9344 22.102 45.1847 20.9246 48.242 20.708C48.9033 20.6521 49.5679 20.6455 50.2302 20.6883V19.9016C50.2302 18.8391 49.6779 18.4266 48.7214 18.4266C47.7483 18.4266 47.47 18.8194 47.2126 19.43C47.1132 19.6652 47.0337 19.7046 46.815 19.6488L44.6313 19.1017C44.4104 19.0426 44.3927 18.9244 44.4325 18.7669C44.7307 17.2131 46.2196 16.0729 48.8407 16.0729C51.5976 16.062 53.1461 17.3597 53.1461 19.7987ZM50.228 23.519V22.4915C49.6448 22.4708 49.0609 22.4906 48.4806 22.5506C47.3683 22.6885 46.773 23.0222 46.773 23.8637C46.773 24.6296 47.2888 25.0443 48.1426 25.0443C49.1157 25.0509 49.8701 24.5191 50.228 23.5168V23.519ZM61.0313 16.062C62.4208 16.062 63.3343 16.8684 63.7507 18.0316C64.5647 16.852 65.5577 16.062 66.9472 16.062C68.8735 16.062 69.9658 17.5764 69.9658 19.8381V26.899C69.9658 27.0763 69.8068 27.1944 69.608 27.1944H67.3249C67.1261 27.1944 66.967 27.0763 66.967 26.899V20.3491C66.967 19.3643 66.5308 18.7756 65.7521 18.7756C64.938 18.7756 64.3427 19.4453 64.0445 20.4673V26.899C64.0474 26.9369 64.0423 26.9749 64.0296 27.0108C64.0169 27.0466 63.9969 27.0794 63.9707 27.1072C63.9445 27.135 63.9129 27.157 63.8777 27.1721C63.8424 27.1871 63.8045 27.1947 63.7661 27.1944H61.3041C61.1263 27.1944 61.0468 27.0763 61.0468 26.899V20.3491C61.0468 19.3643 60.605 18.7756 59.8318 18.7756C58.9979 18.7756 58.4026 19.4847 58.1242 20.487V26.899C58.1283 26.9387 58.1235 26.9788 58.11 27.0165C58.0966 27.0541 58.0749 27.0883 58.0464 27.1166C58.018 27.1448 57.9835 27.1665 57.9456 27.18C57.9077 27.1934 57.8672 27.1984 57.8271 27.1944H55.4126C55.3724 27.1985 55.3318 27.1937 55.2937 27.1803C55.2557 27.167 55.2211 27.1453 55.1925 27.117C55.164 27.0887 55.1421 27.0545 55.1286 27.0168C55.1151 26.979 55.1102 26.9388 55.1144 26.899V16.573C55.1141 16.5351 55.1218 16.4975 55.137 16.4627C55.1521 16.4278 55.1745 16.3965 55.2025 16.3707C55.2305 16.3448 55.2637 16.3251 55.2999 16.3126C55.336 16.3002 55.3744 16.2953 55.4126 16.2983H57.7321C57.7702 16.2953 57.8086 16.3002 57.8447 16.3126C57.8808 16.3251 57.9139 16.3449 57.9418 16.3707C57.9698 16.3966 57.992 16.4279 58.0071 16.4627C58.0221 16.4976 58.0297 16.5351 58.0292 16.573V17.8127C58.6886 16.9111 59.6407 16.062 61.0313 16.062ZM82.4591 16.2983C82.5188 16.5533 82.4392 16.7503 82.2018 16.8093L80.0965 17.4188C79.8381 17.4976 79.7 17.3991 79.6205 17.1628C79.3223 16.178 78.8064 15.3934 77.3374 15.3934C75.5304 15.3934 74.9539 16.573 74.9539 18.1662V21.8252C74.9539 23.4183 75.61 24.5979 77.3374 24.5979C78.8838 24.5979 79.4813 23.7324 79.7199 22.6513C79.7795 22.415 79.9408 22.2968 80.1959 22.3953L82.3001 23.0638C82.5386 23.1426 82.6182 23.3199 82.5585 23.5748C82.0626 25.6997 80.514 27.4308 77.2977 27.4308C73.6837 27.4308 71.8568 25.11 71.8568 21.9237V18.0677C71.8568 14.8814 73.7234 12.5605 77.2977 12.5605C80.4345 12.5605 81.9035 14.2128 82.4591 16.2983ZM93.0283 19.7987V26.899C93.0307 26.9383 93.0247 26.9777 93.0106 27.0146C92.9966 27.0514 92.9748 27.0849 92.9467 27.1128C92.9187 27.1407 92.8849 27.1624 92.8478 27.1765C92.8106 27.1905 92.7709 27.1967 92.7312 27.1944H90.5465C90.5054 27.1987 90.4638 27.1942 90.4247 27.1811C90.3855 27.168 90.3497 27.1468 90.3196 27.1187C90.2895 27.0907 90.2659 27.0565 90.2503 27.0186C90.2347 26.9807 90.2276 26.9399 90.2295 26.899V25.7391C89.9198 26.2571 89.4776 26.6848 88.9475 26.9791C88.4175 27.2735 87.8184 27.424 87.2108 27.4155C85.1464 27.4155 83.8166 26.0969 83.8166 24.0716C83.8166 22.102 85.0669 20.9246 88.1242 20.708C88.7855 20.6521 89.4501 20.6455 90.1124 20.6883V19.9016C90.1124 18.8391 89.5601 18.4266 88.6036 18.4266C87.6305 18.4266 87.3522 18.8194 87.0948 19.43C86.9954 19.6652 86.9159 19.7046 86.6972 19.6488L84.5135 19.1017C84.2926 19.0426 84.275 18.9244 84.3147 18.7669C84.6129 17.2131 86.1018 16.0729 88.7229 16.0729C91.4798 16.062 93.0283 17.3597 93.0283 19.7987ZM90.1102 23.519V22.4915C89.527 22.4708 88.9431 22.4906 88.3628 22.5506C87.2505 22.6885 86.6552 23.0222 86.6552 23.8637C86.6552 24.6296 87.1721 25.0443 88.0248 25.0443C88.9979 25.0509 89.7523 24.5191 90.1102 23.5168V23.519ZM101.53 16.4942V18.5995C101.53 18.8544 101.43 18.9529 101.172 18.9529H100.854C99.2656 18.9529 98.3334 19.6608 98.0153 20.8415V26.899C98.0189 26.9358 98.0149 26.9729 98.0035 27.0081C97.9922 27.0433 97.9737 27.0759 97.9492 27.1037C97.9246 27.1316 97.8947 27.1542 97.861 27.1702C97.8274 27.1862 97.7908 27.1952 97.7535 27.1966H95.255C95.2183 27.1947 95.1823 27.1855 95.1493 27.1694C95.1162 27.1534 95.0868 27.1309 95.0628 27.1033C95.0387 27.0757 95.0205 27.0436 95.0094 27.0088C94.9982 26.9741 94.9942 26.9375 94.9977 26.9012V16.573C94.9956 16.5347 95.0021 16.4964 95.0166 16.4608C95.031 16.4252 95.0532 16.3932 95.0816 16.367C95.1099 16.3408 95.1437 16.3211 95.1805 16.3092C95.2173 16.2974 95.2564 16.2937 95.2948 16.2983H97.558C97.7966 16.2983 97.8562 16.4548 97.8562 16.6124V18.0677C98.372 17.1048 99.3451 16.1605 101.053 16.1605C101.45 16.1605 101.53 16.2196 101.53 16.4942ZM105.431 22.6513V23.0638C105.431 24.2051 106.027 25.0115 107.437 25.0115C108.806 25.0115 109.184 24.4994 109.541 23.8505C109.72 23.5551 109.799 23.5223 110.116 23.6536L111.686 24.4403C112.003 24.5979 112.023 24.7555 111.884 25.0509C111.209 26.5653 109.521 27.4308 107.417 27.4308C104.24 27.4308 102.573 25.5619 102.573 23.0047V20.4881C102.573 18.0097 104.141 16.0631 107.397 16.0631C110.49 16.0631 112.003 18.0097 112.003 20.429V22.1633C112.003 22.4587 111.904 22.6557 111.487 22.6557L105.431 22.6513ZM105.431 20.3535V20.7277H109.264V20.3535C109.264 19.2921 108.667 18.466 107.357 18.466C106.047 18.466 105.431 19.2877 105.431 20.3491V20.3535Z" fill="white"/>
<path d="M13.727 4H0.403152C0.296319 4.00029 0.193945 4.04246 0.118403 4.1173C0.04286 4.19213 0.000291545 4.29355 4.8735e-08 4.39938V23.5983C-0.000145008 25.2269 0.323525 26.8395 0.952528 28.3441C1.58153 29.8488 2.50355 31.2159 3.66593 32.3676C4.82831 33.5192 6.20828 34.4327 7.72706 35.056C9.24584 35.6792 10.8737 36 12.5176 36H13.7326C17.0517 35.9986 20.2343 34.6913 22.5807 32.3656C24.927 30.04 26.2449 26.8864 26.2446 23.5983V16.4006C26.2446 14.7721 25.9209 13.1596 25.2918 11.6551C24.6627 10.1506 23.7407 8.78356 22.5783 7.63206C21.416 6.48055 20.036 5.56713 18.5173 4.94394C16.9986 4.32075 15.3709 4 13.727 4ZM22.2253 23.8051C22.2253 28.4741 18.7626 31.9996 13.3769 31.9996C6.99607 31.9996 4.01495 28.2519 4.01495 23.1059V16.881C4.01495 11.7382 6.99717 7.98728 13.3769 7.98728C18.5384 7.98728 20.8788 10.9099 21.8089 13.8314C21.937 14.2768 21.7768 14.5306 21.4245 14.6575L17.9618 15.6741C17.5443 15.801 17.3201 15.6741 17.1886 15.2615C16.643 13.5108 15.4888 12.5611 13.3736 12.5611C10.1031 12.5611 9.01293 14.4672 9.01293 17.0396V22.9483C9.01293 25.5208 10.1031 27.4269 13.3736 27.4269C16.0664 27.4269 17.4769 26.1883 17.4769 23.4878V22.7218H13.8894C13.6011 22.7218 13.4089 22.5632 13.4089 22.2141V18.9425C13.4089 18.624 13.6011 18.4336 13.8894 18.4336H21.7128C22.0331 18.4336 22.2253 18.5923 22.2253 18.9107V23.8051Z" fill="white"/>
</g>
<defs>
<clipPath id="clip0_4872_1098">
<rect width="112" height="40" fill="white"/>
</clipPath>
</defs>
</svg>
