<svg width="40" height="40" viewBox="0 0 40 40" fill="none" xmlns="http://www.w3.org/2000/svg">
<path d="M39.4734 21.5808C39.4734 22.4355 39.1651 23.1895 38.5484 23.8431L36.6734 25.7283C36.0401 26.365 35.2818 26.6834 34.3984 26.6834C33.4984 26.6834 32.7484 26.365 32.1484 25.7283L24.7984 18.3635V36.0591C24.7984 36.9305 24.4859 37.6385 23.8609 38.1831C23.2359 38.7277 22.4818 39 21.5984 39H18.3984C17.5151 39 16.7609 38.7277 16.1359 38.1831C15.5109 37.6385 15.1984 36.9305 15.1984 36.0591V18.3635L7.84844 25.7283C7.24844 26.365 6.49844 26.6834 5.59844 26.6834C4.69844 26.6834 3.94844 26.365 3.34844 25.7283L1.47344 23.8431C0.840104 23.2063 0.523438 22.4522 0.523438 21.5808C0.523438 20.6927 0.840104 19.9303 1.47344 19.2935L17.7484 2.93003C18.3318 2.31001 19.0818 2 19.9984 2C20.8984 2 21.6568 2.31001 22.2734 2.93003L38.5484 19.2935C39.1651 19.947 39.4734 20.7095 39.4734 21.5808Z" fill="#FF0036"/>
</svg>
