<svg width="20" height="20" viewBox="0 0 20 20" fill="none" xmlns="http://www.w3.org/2000/svg">
<path d="M9.16675 10.8333H5.00008C4.76397 10.8333 4.56605 10.7534 4.40633 10.5937C4.24661 10.434 4.16675 10.2361 4.16675 9.99996C4.16675 9.76385 4.24661 9.56593 4.40633 9.40621C4.56605 9.24649 4.76397 9.16663 5.00008 9.16663H9.16675V4.99996C9.16675 4.76385 9.24661 4.56593 9.40633 4.40621C9.56605 4.24649 9.76397 4.16663 10.0001 4.16663C10.2362 4.16663 10.4341 4.24649 10.5938 4.40621C10.7536 4.56593 10.8334 4.76385 10.8334 4.99996V9.16663H15.0001C15.2362 9.16663 15.4341 9.24649 15.5938 9.40621C15.7536 9.56593 15.8334 9.76385 15.8334 9.99996C15.8334 10.2361 15.7536 10.434 15.5938 10.5937C15.4341 10.7534 15.2362 10.8333 15.0001 10.8333H10.8334V15C10.8334 15.2361 10.7536 15.434 10.5938 15.5937C10.4341 15.7534 10.2362 15.8333 10.0001 15.8333C9.76397 15.8333 9.56605 15.7534 9.40633 15.5937C9.24661 15.434 9.16675 15.2361 9.16675 15V10.8333Z" fill="white"/>
</svg>
