<svg width="20" height="20" viewBox="0 0 20 20" fill="none" xmlns="http://www.w3.org/2000/svg">
<path d="M10.4959 12.1725L15.528 7.24337C15.6992 7.07572 15.9017 6.99468 16.1356 7.00027C16.3696 7.00586 16.5721 7.09248 16.7433 7.26014C16.9144 7.4278 17 7.62619 17 7.85533C17 8.08446 16.9144 8.28286 16.7433 8.45051L11.4715 13.5976C11.3346 13.7317 11.1805 13.8323 11.0093 13.8994C10.8382 13.9665 10.667 14 10.4959 14C10.3247 14 10.1535 13.9665 9.98237 13.8994C9.81121 13.8323 9.65717 13.7317 9.52024 13.5976L4.24846 8.43375C4.0773 8.26609 3.99457 8.07049 4.00028 7.84694C4.00598 7.6234 4.09441 7.4278 4.26558 7.26014C4.43674 7.09248 4.63928 7.00865 4.8732 7.00865C5.10712 7.00865 5.30966 7.09248 5.48082 7.26014L10.4959 12.1725Z" fill="white"/>
</svg>
